<svg xmlns="http://www.w3.org/2000/svg" xmlns:xlink="http://www.w3.org/1999/xlink" width="2000" zoomAndPan="magnify" viewBox="0 0 1500 1499.999933" height="2000" preserveAspectRatio="xMidYMid meet" version="1.0"><defs><g/><clipPath id="24f48aeef2"><path d="M 80 79 L 575 79 L 575 573 L 80 573 Z M 80 79 " clip-rule="nonzero"/></clipPath><clipPath id="30456a19d1"><path d="M 221.929688 0.148438 L 653.167969 220.761719 L 432.558594 652 L 1.320312 431.386719 Z M 221.929688 0.148438 " clip-rule="nonzero"/></clipPath><clipPath id="72f9ebdbca"><path d="M 221.929688 0.148438 L 653.167969 220.761719 L 432.558594 652 L 1.320312 431.386719 Z M 221.929688 0.148438 " clip-rule="nonzero"/></clipPath><clipPath id="12ffc74110"><path d="M 221.929688 0.148438 L 653.167969 220.761719 L 432.558594 652 L 1.320312 431.386719 Z M 221.929688 0.148438 " clip-rule="nonzero"/></clipPath><clipPath id="2cf3be68ed"><rect x="0" width="767" y="0" height="973"/></clipPath></defs><rect x="-150" width="1800" fill="#ffffff" y="-149.999993" height="1799.99992" fill-opacity="1"/><rect x="-150" width="1800" fill="#ffffff" y="-149.999993" height="1799.99992" fill-opacity="1"/><g transform="matrix(1, 0, 0, 1, 347, 270)"><g clip-path="url(#2cf3be68ed)"><g fill="#000000" fill-opacity="1"><g transform="translate(380.768447, 792.749953)"><g><path d="M 255.78125 -87.140625 C 270.46875 -87.140625 284.734375 -89.359375 298.578125 -93.796875 C 312.421875 -98.242188 322.585938 -102.515625 329.078125 -106.609375 L 338.8125 -113.28125 L 379.8125 -31.265625 C 378.445312 -30.242188 376.566406 -28.878906 374.171875 -27.171875 C 371.785156 -25.460938 366.234375 -22.300781 357.515625 -17.6875 C 348.804688 -13.070312 339.492188 -9.054688 329.578125 -5.640625 C 319.671875 -2.222656 306.6875 0.847656 290.625 3.578125 C 274.570312 6.316406 258 7.6875 240.90625 7.6875 C 201.613281 7.6875 164.367188 -1.960938 129.171875 -21.265625 C 93.972656 -40.578125 65.609375 -67.144531 44.078125 -100.96875 C 22.554688 -134.800781 11.796875 -171.367188 11.796875 -210.671875 C 11.796875 -240.398438 18.113281 -268.929688 30.75 -296.265625 C 43.394531 -323.609375 60.222656 -347.015625 81.234375 -366.484375 C 102.253906 -385.960938 126.773438 -401.507812 154.796875 -413.125 C 182.816406 -424.75 211.519531 -430.5625 240.90625 -430.5625 C 268.25 -430.5625 293.453125 -427.316406 316.515625 -420.828125 C 339.578125 -414.335938 355.894531 -407.84375 365.46875 -401.34375 L 379.8125 -391.609375 L 338.8125 -309.59375 C 336.414062 -311.644531 332.828125 -314.125 328.046875 -317.03125 C 323.265625 -319.9375 313.695312 -323.78125 299.34375 -328.5625 C 284.988281 -333.34375 270.46875 -335.734375 255.78125 -335.734375 C 232.539062 -335.734375 211.691406 -331.972656 193.234375 -324.453125 C 174.785156 -316.941406 160.175781 -307.035156 149.40625 -294.734375 C 138.644531 -282.429688 130.445312 -269.1875 124.8125 -255 C 119.175781 -240.820312 116.359375 -226.382812 116.359375 -211.6875 C 116.359375 -179.570312 128.398438 -150.785156 152.484375 -125.328125 C 176.578125 -99.867188 211.007812 -87.140625 255.78125 -87.140625 Z M 255.78125 -87.140625 "/></g></g></g><g clip-path="url(#24f48aeef2)"><g clip-path="url(#30456a19d1)"><g clip-path="url(#72f9ebdbca)"><g clip-path="url(#12ffc74110)"><path fill="#000000" d="M 533.894531 328.410156 L 574.070312 301.992188 L 541.492188 201.171875 L 493.453125 203.257812 C 487.964844 195.550781 481.675781 188.34375 475.023438 181.496094 L 484.699219 134.574219 L 390.402344 86.332031 L 358.015625 121.636719 C 348.566406 120.25 339.042969 119.367188 329.582031 119.421875 L 303.164062 79.246094 L 202.34375 111.824219 L 204.425781 159.863281 C 196.722656 165.355469 189.515625 171.640625 182.667969 178.292969 L 135.746094 168.617188 L 87.503906 262.914062 L 122.808594 295.304688 C 121.421875 304.75 120.539062 314.273438 120.59375 323.734375 L 80.417969 350.15625 L 112.996094 450.972656 L 161.035156 448.890625 C 166.523438 456.59375 172.8125 463.800781 179.464844 470.652344 L 169.789062 517.570312 L 264.085938 565.8125 L 296.476562 530.511719 C 305.921875 531.898438 315.445312 532.78125 324.90625 532.722656 L 351.324219 572.898438 L 452.144531 540.320312 L 450.0625 492.28125 C 457.765625 486.792969 464.972656 480.503906 471.824219 473.851562 L 518.742188 483.527344 L 566.984375 389.230469 L 531.683594 356.84375 C 533.070312 347.394531 533.949219 337.871094 533.894531 328.410156 Z M 281.796875 414.910156 C 232.78125 389.832031 213.332031 329.644531 238.410156 280.628906 C 263.484375 231.609375 323.671875 212.164062 372.691406 237.238281 C 421.707031 262.316406 441.15625 322.5 416.078125 371.519531 C 391.003906 420.535156 330.816406 439.984375 281.796875 414.910156 Z M 281.796875 414.910156 " fill-opacity="1" fill-rule="nonzero"/></g></g></g></g></g></g></svg>